<?xml version="1.0" encoding="iso-8859-1"?>
<!-- Generator: Adobe Illustrator 19.0.0, SVG Export Plug-In . SVG Version: 6.00 Build 0)  -->
<svg version="1.1" id="Capa_1" xmlns="http://www.w3.org/2000/svg" xmlns:xlink="http://www.w3.org/1999/xlink" x="0px" y="0px"
	 viewBox="0 0 512 512" style="enable-background:new 0 0 512 512;" xml:space="preserve">
<path style="fill:#F9A13E;" d="M222.404,135.941c-11.329,25.086-29.543,39.313-29.543,39.313H45.015c0,0-22.03-10.037-32.345-37.345
	c-6.076-16.087-8.092-38.178,0.858-67.733C37.673-9.538,199.396-10.758,224.747,59.91
	C235.786,90.697,231.147,116.556,222.404,135.941z"/>
<g>
	<path style="fill:#E2780E;" d="M222.404,135.941c-11.329,25.086-29.543,39.313-29.543,39.313h-42.623
		c0-25.81,20.992-46.802,46.802-46.802C206.376,128.453,215.084,131.207,222.404,135.941z"/>
	<path style="fill:#E2780E;" d="M87.638,175.255H45.015c0,0-22.03-10.037-32.345-37.345c7.839-5.93,17.598-9.457,28.165-9.457
		C66.646,128.453,87.638,149.444,87.638,175.255z"/>
</g>
<path style="fill:#D2E3F1;" d="M216.763,379.118v124.318H21.909V379.118c0-19.929,5.991-38.48,16.269-53.916
	c17.465-26.221,47.297-43.505,81.164-43.505c26.897,0,51.258,10.906,68.893,28.528c4.565,4.565,8.684,9.59,12.259,14.988
	C210.773,340.65,216.763,359.189,216.763,379.118z"/>
<path style="fill:#A5C6E3;" d="M200.494,325.214l-37.127,34.893c-5.628,5.29-14.409,5.205-19.929-0.181l-24.095-23.516
	l-24.095,23.516c-5.519,5.386-14.312,5.471-19.929,0.181L38.18,325.202c17.465-26.221,47.297-43.505,81.164-43.505
	c26.897,0,51.258,10.906,68.893,28.528C192.8,314.791,196.919,319.816,200.494,325.214z"/>
<path style="fill:#5A9BCC;" d="M189.078,311.089l-35.53,33.388l-34.206-33.388l-34.205,33.388l-35.529-33.388
	c17.683-18.144,42.401-29.403,69.735-29.403c26.903,0,51.264,10.901,68.888,28.539C188.513,310.509,188.796,310.792,189.078,311.089
	z"/>
<g>
	<path style="fill:#FCCE99;" d="M119.339,311.089L119.339,311.089c-11.917,0-21.578-9.661-21.578-21.578v-37.216h43.157v37.216
		C140.917,301.428,131.256,311.089,119.339,311.089z"/>
	<circle style="fill:#FCCE99;" cx="197.036" cy="175.254" r="28.69"/>
	<circle style="fill:#FCCE99;" cx="40.832" cy="175.254" r="28.69"/>
</g>
<path style="fill:#FEE6CC;" d="M197.039,98.693l-3.72,44.58l-5.012,60.015c-3.007,36.077-33.166,63.819-69.376,63.819
	c-36.198,0-66.356-27.743-69.364-63.819l-5.253-62.926l-3.478-41.669C40.835,98.693,197.039,98.693,197.039,98.693z"/>
<path style="fill:#FCCE99;" d="M197.039,98.693l-3.72,44.58c-11.933,2.246-24.047,3.369-36.318,3.369
	c-40.388,0-72.697-12.283-89.643-20.412c-5.604,4.65-13.286,9.916-23.045,14.131l-3.478-41.669
	C40.835,98.693,197.039,98.693,197.039,98.693z"/>
<path style="fill:#F9A13E;" d="M182.546,76.364c24.156,18.265,66.429,27.038,66.429,27.038
	c-97.831,56.173-184.792,0.593-184.792,0.593s-11.126,14.478-32.566,21.876V76.364H182.546z"/>
<rect x="261.232" y="128.45" style="fill:#D2E3F1;" width="243.261" height="53.035"/>
<rect x="261.232" y="128.45" style="fill:#FF2796;" width="69.506" height="53.035"/>
<rect x="261.232" y="219.558" style="fill:#D2E3F1;" width="243.261" height="53.035"/>
<rect x="261.232" y="219.558" style="fill:#8AE46D;" width="182.036" height="53.035"/>
<rect x="261.232" y="310.666" style="fill:#D2E3F1;" width="243.261" height="53.035"/>
<rect x="261.232" y="310.666" style="fill:#FEC007;" width="142.322" height="53.035"/>
<path d="M151.064,400.406c-4.143,0-7.501,3.357-7.501,7.501c0,4.143,3.357,7.501,7.501,7.501h38.014
	c4.143,0,7.501-3.357,7.501-7.501c0-4.143-3.357-7.501-7.501-7.501H151.064z"/>
<path d="M252.71,109.907c2.701-1.551,4.163-4.61,3.672-7.688c-0.491-3.075-2.832-5.528-5.883-6.162
	c-0.137-0.028-4.82-1.017-11.83-2.965c-0.287-11.787-2.584-23.774-6.866-35.719c-6.626-18.468-21.795-33.523-43.87-43.538
	C168.49,5.014,144.162,0.498,119.458,1.122c-43.164,1.089-98.683,19.26-113.1,66.881c-12.369,40.858-4.6,68.477,5.57,85.493
	c-4.574,6.061-7.293,13.597-7.293,21.758c0,19.957,16.236,36.193,36.193,36.193c0.753,0,1.503-0.04,2.251-0.086
	c2.993,16.44,11.225,31.46,23.644,42.886c6.961,6.404,14.94,11.392,23.534,14.835v9.212c-16.991,4.887-32.493,14.007-45.113,26.627
	c-0.333,0.333-0.656,0.672-0.984,1.008c-0.007,0.007-0.015,0.014-0.022,0.021c-0.003,0.003-0.006,0.007-0.009,0.01
	c-19.169,19.697-29.714,45.611-29.714,73.151v124.322c0,4.143,3.357,7.501,7.501,7.501h194.847c4.143,0,7.501-3.357,7.501-7.501
	V388.443c0-4.143-3.357-7.501-7.501-7.501s-7.501,3.357-7.501,7.501v107.489h-82.919V328.41l21.961,21.438
	c1.456,1.421,3.347,2.133,5.239,2.133c1.846,0,3.692-0.677,5.137-2.035l29.971-28.169c9.413,11.379,16.068,25.118,18.977,40.222
	c0.69,3.589,3.832,6.084,7.357,6.084c0.47,0,0.947-0.044,1.426-0.137c4.067-0.783,6.73-4.715,5.947-8.783
	c-7.486-38.876-36.204-70.021-73.941-80.867v-9.549c8.287-3.429,15.988-8.297,22.73-14.499
	c12.419-11.426,20.65-26.445,23.643-42.886c0.749,0.046,1.499,0.086,2.252,0.086c19.957,0,36.192-16.236,36.192-36.193
	c0-9.616-3.777-18.362-9.916-24.85c6.042-10.208,10.344-20.919,12.839-31.959C241.63,115.93,247.153,113.097,252.71,109.907z
	 M20.716,72.349c12.097-39.962,60.956-55.268,99.12-56.232c40.072-1.019,85.865,12.917,97.847,46.317
	c3.112,8.684,5.004,17.353,5.7,25.892c-12.187-4.237-26.092-10.218-36.314-17.948c-3.306-2.499-8.01-1.845-10.507,1.459
	c-2.498,3.304-1.845,8.009,1.459,10.507c14.666,11.09,35.156,18.762,50.084,23.313c-0.398,0.179-0.798,0.349-1.197,0.525
	c-0.215,0.083-0.426,0.175-0.632,0.277c-10.519,4.597-21.216,8.113-32.07,10.542c-0.644,0.058-1.266,0.197-1.857,0.41
	c-22.842,4.843-46.371,4.894-70.388,0.116c-32.363-6.441-53.54-19.727-53.741-19.855c-3.278-2.095-7.615-1.335-9.987,1.749
	c-0.098,0.127-9.975,12.77-29.065,19.356c-3.915,1.351-5.995,5.62-4.644,9.537c1.351,3.915,5.615,5.996,9.537,4.644
	c0.694-0.239,1.366-0.493,2.041-0.745l0.592,7.09c-4.735,0.541-9.198,1.994-13.201,4.187C13.261,124.655,12.27,100.25,20.716,72.349
	z M19.637,175.254c0-10.704,7.986-19.558,18.309-20.972l3.517,42.14c-0.211,0.006-0.422,0.024-0.634,0.024
	C29.144,196.447,19.637,186.94,19.637,175.254z M104.878,314.722l-19.845,19.372l-24.488-23.017
	c8.84-7.651,19.035-13.476,30.045-17.185C91.942,302.803,97.358,310.393,104.878,314.722z M29.418,495.933V379.112
	c0-21.173,7.277-41.223,20.633-57.311l29.944,28.144c2.927,2.751,7.5,2.706,10.377-0.098l20.972-20.473v166.557H29.418V495.933z
	 M153.644,334.095l-19.845-19.372c7.52-4.329,12.935-11.918,14.288-20.828c11.193,3.762,21.365,9.642,30.067,17.161L153.644,334.095
	z M133.416,289.511c0,7.763-6.316,14.077-14.078,14.077s-14.077-6.315-14.077-14.077v-5.43c0-0.062,0.002-0.123,0-0.185v-10.511
	c4.479,0.804,9.052,1.227,13.675,1.227c4.9,0,9.745-0.465,14.48-1.366V289.511z M118.936,259.611
	c-32.044,0-59.233-25.014-61.899-56.947l-6.468-77.49c6.763-4.124,11.813-8.477,15.081-11.695
	c8.766,4.707,27.473,13.521,52.755,18.636c10.973,2.221,23.933,3.853,38.334,3.852c9.393,0,19.401-0.699,29.862-2.378l-5.766,69.076
	C178.168,234.596,150.979,259.611,118.936,259.611z M197.043,196.447c-0.212,0-0.423-0.018-0.635-0.024l3.517-42.14
	c10.322,1.414,18.309,10.267,18.309,20.972C218.234,186.94,208.727,196.447,197.043,196.447z M210.949,141.844
	c-3.067-1.281-6.349-2.148-9.772-2.539l0.737-8.834c5.444-1.347,10.987-2.98,16.604-4.928
	C216.546,131.098,214.015,136.541,210.949,141.844z"/>
<path d="M81.899,161.741c-4.143,0-7.501,3.357-7.501,7.501v1.536c0,4.143,3.357,7.501,7.501,7.501c4.143,0,7.501-3.357,7.501-7.501
	v-1.536C89.399,165.098,86.041,161.741,81.899,161.741z"/>
<path d="M155.79,161.741c-4.143,0-7.501,3.357-7.501,7.501v1.536c0,4.143,3.357,7.501,7.501,7.501c4.143,0,7.501-3.357,7.501-7.501
	v-1.536C163.291,165.098,159.933,161.741,155.79,161.741z"/>
<path d="M132.761,209.882c-3.109,2.378-7.73,3.741-12.675,3.741c-4.945,0-9.565-1.363-12.675-3.741
	c-3.292-2.518-7.999-1.888-10.515,1.402c-2.516,3.29-1.888,7.998,1.402,10.515c5.756,4.401,13.494,6.826,21.787,6.826
	s16.03-2.424,21.787-6.826c3.29-2.517,3.918-7.225,1.402-10.515C140.758,207.994,136.051,207.368,132.761,209.882z"/>
<path d="M265.64,396.28c-4.143,0-7.501,3.357-7.501,7.501v17.919c0,4.143,3.357,7.501,7.501,7.501s7.501-3.357,7.501-7.501v-17.919
	C273.141,399.639,269.784,396.28,265.64,396.28z"/>
<path d="M293.223,396.28c-4.143,0-7.501,3.357-7.501,7.501v17.919c0,4.143,3.357,7.501,7.501,7.501c4.143,0,7.501-3.357,7.501-7.501
	v-17.919C300.723,399.639,297.366,396.28,293.223,396.28z"/>
<path d="M320.805,396.28c-4.143,0-7.501,3.357-7.501,7.501v17.919c0,4.143,3.357,7.501,7.501,7.501c4.143,0,7.501-3.357,7.501-7.501
	v-17.919C328.306,399.639,324.948,396.28,320.805,396.28z"/>
<path d="M348.388,396.28c-4.143,0-7.501,3.357-7.501,7.501v17.919c0,4.143,3.357,7.501,7.501,7.501s7.501-3.357,7.501-7.501v-17.919
	C355.889,399.639,352.531,396.28,348.388,396.28z"/>
<path d="M504.499,120.953h-195.59c-4.143,0-7.501,3.357-7.501,7.501c0,4.143,3.357,7.501,7.501,7.501h14.328v38.037h-54.503v-38.037
	h12.318c4.143,0,7.501-3.357,7.501-7.501c0-4.143-3.357-7.501-7.501-7.501h-19.819c-4.143,0-7.501,3.357-7.501,7.501v53.039
	c0,4.143,3.357,7.501,7.501,7.501h243.265c4.143,0,7.501-3.357,7.501-7.501v-53.039C512,124.31,508.642,120.953,504.499,120.953z
	 M496.998,173.991h-158.76v-38.037h158.76V173.991z"/>
<path d="M504.499,212.06H261.234c-4.143,0-7.501,3.357-7.501,7.501v53.04c0,4.143,3.357,7.501,7.501,7.501h243.265
	c4.143,0,7.501-3.357,7.501-7.501v-53.04C512,215.419,508.642,212.06,504.499,212.06z M268.735,227.062h167.034V265.1H268.735
	L268.735,227.062L268.735,227.062z M496.998,265.1h-46.229v-38.038h46.229V265.1z"/>
<path d="M504.499,303.17H261.234c-4.143,0-7.501,3.357-7.501,7.501v53.039c0,4.143,3.357,7.501,7.501,7.501h168.331
	c4.143,0,7.501-3.357,7.501-7.501s-3.357-7.501-7.501-7.501h-18.513v-38.037h85.945v38.037h-39.576
	c-4.143,0-7.501,3.357-7.501,7.501s3.357,7.501,7.501,7.501h47.077c4.143,0,7.501-3.357,7.501-7.501v-53.039
	C512,306.528,508.642,303.17,504.499,303.17z M396.053,356.209H268.735v-38.037h127.318V356.209z"/>
<g>
</g>
<g>
</g>
<g>
</g>
<g>
</g>
<g>
</g>
<g>
</g>
<g>
</g>
<g>
</g>
<g>
</g>
<g>
</g>
<g>
</g>
<g>
</g>
<g>
</g>
<g>
</g>
<g>
</g>
</svg>
