<?xml version="1.0" encoding="UTF-8"?>
<!DOCTYPE svg PUBLIC "-//W3C//DTD SVG 1.1//EN" "http://www.w3.org/Graphics/SVG/1.1/DTD/svg11.dtd">
<!-- Creator: CorelDRAW X7 -->
<svg xmlns="http://www.w3.org/2000/svg" xml:space="preserve" width="300px" height="300px" version="1.1" style="shape-rendering:geometricPrecision; text-rendering:geometricPrecision; image-rendering:optimizeQuality; fill-rule:evenodd; clip-rule:evenodd"
viewBox="0 0 547 547"
 xmlns:xlink="http://www.w3.org/1999/xlink">
 <defs>
  <style type="text/css">
   <![CDATA[
    .fil0 {fill:#FEFEFE}
    .fil1 {fill:#FF6200;fill-rule:nonzero}
   ]]>
  </style>
 </defs>
 <g id="Layer_x0020_1">
  <metadata id="CorelCorpID_0Corel-Layer"/>
  <circle class="fil0" cx="273" cy="273" r="273"/>
  <path class="fil1" d="M346 201c2,2 2,5 0,7l-13 13c-1,1 -2,1 -4,1 -1,0 -2,0 -3,-1 -2,-2 -2,-5 0,-7l13 -13c2,-2 5,-2 7,0zm-42 30c5,-2 10,-3 15,-2 6,1 11,5 14,10l0 0c3,5 3,11 2,16 -1,5 -5,10 -10,13 -3,2 -7,2 -10,2 -7,0 -14,-3 -18,-10 -6,-10 -3,-23 7,-29zm1 24c3,5 10,7 15,4 3,-1 5,-4 5,-7 1,-2 1,-5 -1,-8 -1,-3 -4,-5 -7,-5 -1,0 -1,-1 -2,-1 -2,0 -4,1 -6,2 -5,3 -7,10 -4,15zm86 -94l0 225c0,2 -3,5 -5,5l-225 0c-2,0 -5,-3 -5,-5l0 -225c0,-2 3,-5 5,-5l225 0c2,0 5,3 5,5zm-225 33c15,-2 26,-13 28,-28l-28 0 0 28zm28 187c-2,-15 -13,-26 -28,-29l0 29 28 0zm187 -29c-15,3 -26,14 -29,29l29 0 0 -29zm0 -148c-20,-2 -36,-18 -38,-38l-139 0c-2,20 -18,36 -38,38l0 139c20,2 36,18 38,38l139 0c2,-20 18,-36 38,-38l0 -139zm0 -38l-29 0c3,15 14,26 29,28l0 -28zm-87 107c0,12 -9,21 -21,21 -5,0 -11,-2 -15,-7 -4,-3 -5,-8 -5,-14 0,-11 9,-20 20,-20 12,0 21,9 21,20zm-9 0c0,-6 -5,-11 -12,-11 -6,0 -11,5 -11,11 0,3 1,6 3,8 2,2 5,4 8,4 7,0 12,-5 12,-12zm34 45c-1,0 -3,0 -4,0 -4,0 -8,-1 -11,-3 -10,-5 -13,-18 -7,-28 5,-10 18,-14 28,-8 5,3 9,7 10,13 1,5 1,11 -2,16 -3,5 -8,9 -14,10zm6 -24c0,-2 -2,-5 -5,-6 -1,-1 -3,-2 -5,-2 -4,0 -8,2 -10,6 -3,5 -1,12 4,15 3,1 5,2 8,1 3,-1 6,-2 7,-5 2,-3 2,-6 1,-9zm-111 32l-13 13c-2,2 -2,5 0,7 1,1 2,2 3,2 1,0 3,-1 4,-2l13 -13c2,-2 2,-5 0,-7 -2,-2 -5,-2 -7,0zm0 -105c1,1 2,1 4,1 1,0 2,0 3,-1 2,-2 2,-5 0,-7l-13 -13c-2,-2 -5,-2 -7,0 -2,2 -2,5 0,7l13 13zm38 82c-1,5 -5,10 -9,12 -4,2 -7,3 -11,3 -2,0 -4,0 -5,-1 -6,-1 -10,-4 -13,-9 -3,-5 -4,-11 -2,-16 1,-6 5,-10 10,-13 4,-2 9,-3 14,-2 6,1 11,5 14,10 3,5 4,10 2,16zm-10 -11c-2,-3 -5,-5 -8,-6 0,0 -1,0 -2,0 -2,0 -4,1 -5,2 -3,1 -5,4 -6,6 0,3 0,6 1,9 2,2 4,4 7,5 3,1 6,0 9,-1 2,-2 4,-4 5,-7 1,-3 0,-6 -1,-8zm16 -52c-4,-4 -5,-9 -5,-14 0,-12 9,-21 20,-21 12,0 21,9 21,21 0,11 -9,21 -21,21 -5,0 -11,-3 -15,-7zm4 -14c0,2 1,5 3,7 2,2 5,4 8,4 7,0 12,-5 12,-11 0,-6 -5,-11 -12,-11 -6,0 -11,5 -11,11zm71 100c-2,-2 -5,-2 -7,0 -2,2 -2,5 0,7l13 13c1,1 2,2 4,2 1,0 2,-1 3,-2 2,-2 2,-5 0,-7l-13 -13zm-39 -5c0,12 -9,21 -21,21 -5,0 -11,-2 -15,-7 -4,-4 -5,-9 -5,-14 0,-11 9,-21 20,-21 12,0 21,10 21,21zm-9 0c0,-6 -5,-11 -12,-11 -6,0 -11,5 -11,11 0,3 1,6 3,8 2,2 5,3 8,3 7,0 12,-5 12,-11zm-58 -92c5,-1 11,0 16,2 10,6 13,19 7,29 -3,5 -8,9 -14,10 -1,0 -2,0 -4,0 -4,0 -7,0 -10,-2 -5,-3 -9,-8 -10,-13 -2,-5 -1,-11 2,-16 3,-5 7,-8 13,-10zm-6 23c1,3 3,6 6,7 2,2 5,2 7,1 3,0 6,-2 8,-5 3,-5 1,-12 -4,-15 -2,-1 -4,-2 -6,-2 -1,0 -2,1 -3,1 -3,1 -5,2 -7,5 -1,3 -1,6 -1,8z"/>
  <g id="_2375972051216">
   <g>
    <path class="fil1" d="M273 33c13,1 23,11 23,23 0,13 -10,24 -23,24 -12,0 -23,-11 -23,-24 0,-12 11,-22 23,-23l0 0z"/>
    <path class="fil1" d="M311 65c-4,17 -19,30 -38,30 -18,0 -33,-13 -37,-30 -14,3 -24,15 -24,30l0 31c0,8 7,15 15,15 9,0 16,-7 16,-15l0 -16 61 0 0 16c0,8 7,15 15,15 9,0 16,-7 16,-15l0 -31c0,-15 -11,-27 -24,-30z"/>
   </g>
   <g>
    <path class="fil1" d="M273 513c13,0 23,-10 23,-23 0,-12 -10,-23 -23,-23 -12,0 -23,11 -23,23 0,13 11,23 23,23l0 0z"/>
    <path class="fil1" d="M311 482c-4,-17 -19,-30 -38,-30 -18,0 -33,13 -37,30 -14,-3 -24,-15 -24,-30l0 -31c0,-8 7,-15 15,-15 9,0 16,7 16,15l0 16 61 0 0 -16c0,-8 7,-15 15,-15 9,0 16,7 16,15l0 31c0,15 -11,27 -24,30z"/>
   </g>
  </g>
  <g id="_2375972052400">
   <g>
    <path class="fil1" d="M513 273c0,13 -10,23 -23,23 -12,0 -23,-10 -23,-23 0,-12 11,-23 23,-23 13,0 23,11 23,23l0 0z"/>
    <path class="fil1" d="M482 311c-17,-4 -30,-19 -30,-38 0,-18 13,-33 30,-37 -3,-14 -15,-24 -30,-24l-31 0c-8,0 -15,7 -15,15 0,9 7,16 15,16l16 0 0 61 -16 0c-8,0 -15,7 -15,15 0,9 7,16 15,16l31 0c15,0 27,-11 30,-24z"/>
   </g>
   <g>
    <path class="fil1" d="M33 273c1,13 11,23 23,23 13,0 24,-10 24,-23 0,-12 -11,-23 -24,-23 -12,0 -22,11 -23,23l0 0z"/>
    <path class="fil1" d="M65 311c17,-4 30,-19 30,-38 0,-18 -13,-33 -30,-37 3,-14 15,-24 30,-24l31 0c8,0 15,7 15,15 0,9 -7,16 -15,16l-16 0 0 61 16 0c8,0 15,7 15,15 0,9 -7,16 -15,16l-31 0c-15,0 -27,-11 -30,-24z"/>
   </g>
  </g>
 </g>
</svg>
