<?xml version="1.0" encoding="UTF-8"?>
<!DOCTYPE svg PUBLIC "-//W3C//DTD SVG 1.1//EN" "http://www.w3.org/Graphics/SVG/1.1/DTD/svg11.dtd">
<!-- Creator: CorelDRAW X7 -->
<svg xmlns="http://www.w3.org/2000/svg" xml:space="preserve" width="300px" height="300px" version="1.1" style="shape-rendering:geometricPrecision; text-rendering:geometricPrecision; image-rendering:optimizeQuality; fill-rule:evenodd; clip-rule:evenodd"
viewBox="0 0 547 547"
 xmlns:xlink="http://www.w3.org/1999/xlink">
 <defs>
  <style type="text/css">
   <![CDATA[
    .fil0 {fill:#FEFEFE}
    .fil1 {fill:#FF6200;fill-rule:nonzero}
   ]]>
  </style>
 </defs>
 <g id="Layer_x0020_1">
  <metadata id="CorelCorpID_0Corel-Layer"/>
  <circle class="fil0" cx="273" cy="273" r="273"/>
  <g id="_2375972075792">
   <path class="fil1" d="M340 379c-5,-27 9,-55 14,-83 5,-5 7,-12 7,-20 0,-4 -1,-9 -3,-14 -19,-37 -47,-65 -73,-97 -25,-29 -67,14 -42,43 7,9 15,18 22,27 1,17 0,33 -8,47 -5,8 -3,15 2,19l-5 15 -10 -3 -42 111c0,0 9,27 32,11 8,-20 42,-111 42,-111l-9 -3 6 -15c4,0 8,-3 11,-8 5,-8 8,-16 10,-25 4,6 8,13 12,20 2,4 4,6 7,9 -5,26 -17,51 -13,78 3,21 9,41 15,60 9,24 48,14 39,-11 -6,-16 -10,-33 -14,-50z"/>
   <path class="fil1" d="M207 126c0,2 1,4 1,6 0,1 1,2 1,3l-9 7c0,1 0,2 0,2 1,1 16,19 29,15 2,0 4,-1 6,-2 0,-1 0,-1 0,-1l2 -2c2,0 5,-1 8,-1 16,-5 26,-21 21,-37 -3,-14 -15,-23 -28,-23l-1 0c-3,0 -5,1 -8,1 -12,4 -21,14 -22,26l-16 5 2 5 14 -4zm26 27l-1 1c-4,3 -10,3 -15,0l5 -5c3,2 7,4 11,4zm-14 -6l-4 5c-1,0 -1,0 -1,0 -4,-3 -8,-6 -10,-8l7 -6c2,4 4,7 8,9z"/>
   <path class="fil1" d="M192 263c-4,0 -7,3 -7,7l0 138c0,4 3,7 7,7 4,0 7,-3 7,-7l0 -138c0,-4 -3,-7 -7,-7z"/>
   <path class="fil1" d="M227 270c0,-4 -3,-7 -7,-7 -4,0 -7,3 -7,7l0 106 14 -36 0 -70z"/>
   <path class="fil1" d="M254 271l0 -1c0,-4 -3,-7 -7,-7 -3,0 -7,3 -7,7l0 34 1 -2 9 4 1 0c-5,-8 -5,-18 0,-26 1,-3 2,-6 3,-9z"/>
   <path class="fil1" d="M218 259c0,-2 -2,-4 -4,-4l-18 0c-2,0 -4,2 -4,4 0,2 2,4 4,4l18 0c2,0 4,-2 4,-4z"/>
   <path class="fil1" d="M244 255l-18 0c-2,0 -4,2 -4,4 0,2 2,4 4,4l18 0c2,0 3,-2 3,-4 0,-2 -1,-4 -3,-4z"/>
  </g>
 </g>
</svg>
