<?xml version="1.0" encoding="UTF-8"?>
<!DOCTYPE svg PUBLIC "-//W3C//DTD SVG 1.1//EN" "http://www.w3.org/Graphics/SVG/1.1/DTD/svg11.dtd">
<!-- Creator: CorelDRAW X7 -->
<svg xmlns="http://www.w3.org/2000/svg" xml:space="preserve" width="300px" height="300px" version="1.1" style="shape-rendering:geometricPrecision; text-rendering:geometricPrecision; image-rendering:optimizeQuality; fill-rule:evenodd; clip-rule:evenodd"
viewBox="0 0 82 82"
 xmlns:xlink="http://www.w3.org/1999/xlink">
 <defs>
  <style type="text/css">
   <![CDATA[
    .fil0 {fill:#FEFEFE}
    .fil1 {fill:#FF6200;fill-rule:nonzero}
   ]]>
  </style>
 </defs>
 <g id="Layer_x0020_1">
  <metadata id="CorelCorpID_0Corel-Layer"/>
  <circle class="fil0" cx="41" cy="41" r="41"/>
  <g id="_2375897646032">
   <path class="fil1" d="M40 34c0,0 0,0 0,0l0 0 0 0z"/>
   <path class="fil1" d="M45 25c2,0 4,-2 4,-4 -1,-2 -3,-4 -5,-4 -2,0 -4,2 -4,5 0,2 2,4 5,3z"/>
   <path class="fil1" d="M54 64c0,1 1,1 2,1 1,0 1,0 1,0 2,-1 2,-2 2,-4l-6 -12 -6 0 7 15z"/>
   <path class="fil1" d="M30 61c-1,1 -1,3 1,4 0,0 1,0 1,0 1,0 2,0 3,-1l9 -15 -7 0 -7 12z"/>
   <path class="fil1" d="M65 42l-38 0c-1,0 -2,1 -2,3 0,1 1,2 2,2l38 0c1,0 2,-1 2,-2 0,-2 -1,-3 -2,-3z"/>
   <path class="fil1" d="M41 38c0,-1 -1,-2 -2,-2 -1,0 -2,1 -2,2 0,1 1,1 2,1 1,0 2,0 2,-1z"/>
   <path class="fil1" d="M64 28c0,-2 -2,-2 -3,-2l-7 2 -7 -1c0,0 -3,0 -4,0 -1,0 -5,3 -9,5l-5 0c-1,0 -1,0 -1,0l-3 -1c0,-2 -1,-4 -3,-5 -3,-1 -6,0 -7,2 -1,2 1,5 3,6 2,1 4,0 5,-1l3 2c1,1 1,2 3,2l5 0c1,0 1,0 1,-1 1,-1 2,-2 4,-2 2,0 4,1 4,4 0,1 0,2 -1,2l8 0 -1 -8 5 1c0,0 0,0 0,0 0,0 1,0 1,0l7 -2c2,-1 2,-2 2,-3z"/>
  </g>
 </g>
</svg>
